<?xml version="1.0" encoding="UTF-8"?>
<svg id="Layer_1" xmlns="http://www.w3.org/2000/svg" version="1.1" xmlns:xlink="http://www.w3.org/1999/xlink" viewBox="0 0 93.6 93.6">
  <!-- Generator: Adobe Illustrator 30.3.0, SVG Export Plug-In . SVG Version: 2.1.3 Build 182)  -->
  <defs>
    <style>
      .st0 {
        fill: url(#linear-gradient1);
      }

      .st1 {
        fill: url(#linear-gradient);
      }
    </style>
    <linearGradient id="linear-gradient" x1="25.67" y1="84.68" x2="60.9" y2="45.61" gradientUnits="userSpaceOnUse">
      <stop offset="0" stop-color="#f68922"/>
      <stop offset=".91" stop-color="#e94024"/>
      <stop offset="1" stop-color="#e94024"/>
    </linearGradient>
    <linearGradient id="linear-gradient1" x1="13.72" y1="73.9" x2="48.96" y2="34.84" xlink:href="#linear-gradient"/>
  </defs>
  <polygon class="st1" points="78.94 71.94 78.96 74.31 68.97 74.31 68.97 54.55 60.31 50.64 60.31 50.63 55.81 48.59 55.81 48.61 49.71 45.86 49.71 27.67 39.72 33.92 39.72 39.23 45.21 35.79 45.21 73.71 37.88 73.71 37.88 45.95 37.88 40.38 37.88 35.07 37.88 32.17 37.88 19.08 55.81 19.08 55.81 46.56 60.31 48.59 60.31 14.58 33.38 14.58 33.38 37.89 33.38 37.89 33.38 43.2 33.38 43.19 33.38 78.21 49.71 78.21 49.71 50.8 53.02 52.29 53.04 52.3 55.81 53.55 55.81 53.55 60.31 55.58 60.31 55.58 64.47 57.45 64.47 74.31 60.31 74.31 60.31 57.62 55.81 55.58 55.81 78.81 79 78.81 79.02 81.19 88.57 76.47 78.94 71.94"/>
  <path class="st0" d="M22.78,73.71h-5.99c-.89-1.23-2.33-2.04-3.96-2.04-2.7,0-4.89,2.19-4.89,4.89s2.19,4.89,4.89,4.89c2.12,0,3.91-1.36,4.59-3.24h9.86v-31.21l4.25-2.66v-5.31l-8.75,5.47v29.2Z"/>
</svg>