<?xml version="1.0" encoding="UTF-8"?>
<svg id="Layer_1" xmlns="http://www.w3.org/2000/svg" version="1.1" xmlns:xlink="http://www.w3.org/1999/xlink" viewBox="0 0 93.6 93.6">
  <!-- Generator: Adobe Illustrator 30.3.0, SVG Export Plug-In . SVG Version: 2.1.3 Build 182)  -->
  <defs>
    <style>
      .st0 {
        fill: url(#linear-gradient1);
      }

      .st1 {
        fill: url(#linear-gradient);
      }
    </style>
    <linearGradient id="linear-gradient" x1="21.48" y1="68.66" x2="69.73" y2="22.7" gradientUnits="userSpaceOnUse">
      <stop offset="0" stop-color="#f68922"/>
      <stop offset=".91" stop-color="#e94024"/>
      <stop offset="1" stop-color="#e94024"/>
    </linearGradient>
    <linearGradient id="linear-gradient1" x1="17.52" y1="64.51" x2="65.78" y2="18.55" xlink:href="#linear-gradient"/>
  </defs>
  <polygon class="st1" points="46.99 42.73 39.33 41.86 39.17 42.08 47.05 48.63 69.55 29.16 71.35 30.96 74.86 20.9 64.81 24.42 66.36 25.97 46.99 42.73"/>
  <path class="st0" d="M34.4,45.62l.03-9.87h12.89l16.78-15.61H20.02v34.8l7.22,6.02,8.38-8.46,10.63,8.89,21.34-18.25v9.32l-22.67,19.26-6.26-5.71c.07-.34.12-.69.12-1.05,0-2.7-2.19-4.89-4.89-4.89s-4.89,2.19-4.89,4.89,2.19,4.89,4.89,4.89c.67,0,1.31-.14,1.89-.38l9.04,8.24,27.28-23.17v-21.17l-25.88,22.12-11.81-9.88ZM26.94,54.85l-2.43-2.02v-28.19h28.15l-7.11,6.61h-15.61l-.06,16.47,2.25,1.88-5.2,5.25Z"/>
</svg>