<?xml version="1.0" encoding="UTF-8"?>
<svg id="Layer_1" xmlns="http://www.w3.org/2000/svg" version="1.1" xmlns:xlink="http://www.w3.org/1999/xlink" viewBox="0 0 93.6 93.6">
  <!-- Generator: Adobe Illustrator 30.3.0, SVG Export Plug-In . SVG Version: 2.1.3 Build 182)  -->
  <defs>
    <style>
      .st0 {
        fill: url(#linear-gradient);
      }
    </style>
    <linearGradient id="linear-gradient" x1="17.23" y1="66.91" x2="60.12" y2="24.01" gradientUnits="userSpaceOnUse">
      <stop offset="0" stop-color="#f68922"/>
      <stop offset=".91" stop-color="#e94024"/>
      <stop offset="1" stop-color="#e94024"/>
    </linearGradient>
  </defs>
  <path class="st0" d="M76.89,21.68c-9.41-4.45-19.49-6.7-29.95-6.7-2.77,0-5.56.16-8.29.48l1.9,3.46c2.11-.2,4.25-.3,6.38-.3,9.53,0,18.72,1.97,27.34,5.87-.1,5.95-.99,11.82-2.65,17.48h-12.69l-3.71,6.26h-6.45l-1.29-2.09,6.41-9.83-3.32-4.68h13.34l-.02,2.3,7.18-4.07-7.11-4.18-.02,2.3h-21.91l-6.97-12.02-1.27.24c-5.91,1.12-11.66,3-17.09,5.6l-1.04.5v.99s0,0,0,0v.17h0c.02,8.25,1.46,16.33,4.28,24,1.33,3.63,2.98,7.18,4.9,10.54.48.84.97,1.66,1.48,2.48l2.35-3.2c-1.82-3.19-4.05-7.63-5.31-11.07-2.54-6.92-3.9-14.18-4.04-21.6,4.45-2.03,9.11-3.56,13.88-4.56l6.72,11.59h6.18l3.38,4.76-4.12,6.31-4.3-6.98-5.6,7.7-5.57-9.69c.52-.66.85-1.48.85-2.38,0-2.13-1.73-3.86-3.86-3.86s-3.86,1.73-3.86,3.86c0,2.01,1.54,3.64,3.5,3.82l9.69,16.85-7.62,11.85,1.21,1.63c4.49,5.95,9.86,11.12,15.97,15.38l1.04.73,1.04-.73c11.5-8.02,20.25-19.13,25.32-32.13,0,0-3.82-.26-4.04.27-4.72,11.25-12.4,20.92-22.32,28.13-5.22-3.79-9.85-8.31-13.78-13.43l7.46-11.59-3.01-5.24,3.36-4.62,5.92,9.6h6.33l-5.8,9.78s-.04,0-.07,0c-2.13,0-3.86,1.73-3.86,3.86s1.73,3.86,3.86,3.86,3.86-1.73,3.86-3.86c0-.76-.23-1.47-.61-2.07l10.57-17.82h13.3l.4-1.28c2.13-6.78,3.21-13.85,3.21-21.01v-1.16l-1.04-.49Z"/>
</svg>