<?xml version="1.0" encoding="UTF-8"?>
<svg id="Layer_1" xmlns="http://www.w3.org/2000/svg" version="1.1" xmlns:xlink="http://www.w3.org/1999/xlink" viewBox="0 0 93.6 93.6">
  <!-- Generator: Adobe Illustrator 30.3.0, SVG Export Plug-In . SVG Version: 2.1.3 Build 182)  -->
  <defs>
    <style>
      .st0 {
        fill: url(#linear-gradient);
      }
    </style>
    <linearGradient id="linear-gradient" x1="32.82" y1="76.62" x2="61.2" y2="17.91" gradientUnits="userSpaceOnUse">
      <stop offset="0" stop-color="#f68922"/>
      <stop offset=".91" stop-color="#e94024"/>
      <stop offset="1" stop-color="#e94024"/>
    </linearGradient>
  </defs>
  <path class="st0" d="M62.58,6.11l-.97-1.29-1.4.81c-10.87,6.27-19.95,15.27-26.32,26.06l1.91,4,.58-1.03c5.81-10.27,14.17-18.89,24.22-25.02,3.19,4.61,13.35,20.35,13.33,33.83-.01,10.19-2.92,18.09-8.64,23.46-6.73,6.32-15.81,7.65-20.3,7.9,3.59-5.41,7.11-10.5,12.7-14.71,6.19-4.66,9.54-5.78,9.57-5.79l-.46-1.43-.45-1.43c-.15.05-3.79,1.22-10.47,6.25-.45.34-.89.68-1.31,1.03l11.44-18.94-11.59,1.36,5.63-22.54c.21-.83-.93-1.29-1.36-.55l-19.68,33.85,9.98-.62-7.8,23.39-3.77-2.98v-25.32c1.05-.7,1.74-1.86,1.74-3.18,0-2.13-1.8-3.86-4.02-3.86s-4.02,1.73-4.02,3.86c0,1.67,1.11,3.08,2.65,3.62v7.15l-3.92-3.23v-13.69l2.8-.03-4.71-9.55-4.53,9.64,2.8-.03v15.37l7.57,6.24v10.12l-3.15-2.49v-6.62l-8.48-7.38v-6.47c1.13-.68,1.89-1.88,1.89-3.26,0-2.13-1.8-3.86-4.02-3.86s-4.02,1.73-4.02,3.86c0,1.62,1.04,3,2.5,3.57v7.83l8.48,7.38v6.72l12.99,10.27-3.16,9.47,2.85.95,3.42-10.25c.08,0,.14,0,.23,0,.09,0,.21,0,.32,0h.72c4.67-.15,15.34-1.35,23.43-8.92,6.5-6.09,9.81-14.88,9.82-26.14.02-17.11-14.39-36.53-15.01-37.35ZM53.25,48.02l-8.82.55,8.85-15.22-2.82,11.29,9.82-1.15-12.31,20.39,5.29-15.86Z"/>
</svg>