<?xml version="1.0" encoding="UTF-8"?>
<svg id="Layer_1" xmlns="http://www.w3.org/2000/svg" version="1.1" xmlns:xlink="http://www.w3.org/1999/xlink" viewBox="0 0 93.6 93.6">
  <!-- Generator: Adobe Illustrator 30.3.0, SVG Export Plug-In . SVG Version: 2.1.3 Build 182)  -->
  <defs>
    <style>
      .st0 {
        fill: url(#linear-gradient2);
      }

      .st1 {
        fill: url(#linear-gradient1);
      }

      .st2 {
        fill: url(#linear-gradient3);
      }

      .st3 {
        fill: url(#linear-gradient);
      }
    </style>
    <linearGradient id="linear-gradient" x1="15.93" y1="77.21" x2="74.14" y2="21.29" gradientUnits="userSpaceOnUse">
      <stop offset="0" stop-color="#f68922"/>
      <stop offset=".91" stop-color="#e94024"/>
      <stop offset="1" stop-color="#e94024"/>
    </linearGradient>
    <linearGradient id="linear-gradient1" x1="7.56" y1="68.49" x2="65.77" y2="12.58" xlink:href="#linear-gradient"/>
    <linearGradient id="linear-gradient2" x1="10.96" y1="72.04" x2="69.17" y2="16.12" xlink:href="#linear-gradient"/>
    <linearGradient id="linear-gradient3" x1="14.37" y1="75.58" x2="72.58" y2="19.67" xlink:href="#linear-gradient"/>
  </defs>
  <path class="st3" d="M28.26,18.42c-.16-.22-.33-.44-.53-.65-1.91-1.91-5.01-1.91-6.92,0s-1.91,5.01,0,6.92c1.91,1.91,5.01,1.91,6.92,0,.74-.74,1.19-1.67,1.35-2.63h53.7v62.94l-17.18.22-.02-18.63c.13-.18.25-.35.36-.52l2.36,1.31,2.59,1.44.89-1.59c2.25-4.04,3.49-8.61,3.57-13.23l.03-1.85h-1.85s-3.88-.03-3.88-.03c-.04-.72-.12-1.43-.23-2.14l5.53-1.55-.43-1.72c-.66-2.65-1.7-5.18-3.09-7.52-1.21-2.05-2.68-3.93-4.36-5.6l-1.29-1.28-2.44,2.45-1.6,1.61c-.76-.64-1.56-1.22-2.39-1.76l1.51-2.76.35-.64h0s.89-1.62.89-1.62l-1.63-.87c-3.99-2.12-8.5-3.25-13.02-3.28h-1.83s0,1.82,0,1.82c0,.74,0,1.54,0,2.4,0,.14,0,.29,0,.43,0,0,0,.01,0,.02,0,.34,0,.69,0,1.04-.7.05-1.41.14-2.11.26l-.16-.59-1.32-4.94-1.75.45c-2.58.67-5.04,1.69-7.33,3.04-1.77,1.05-3.44,2.31-4.96,3.75l-1.37,1.29,2.66,2.66,1.38,1.38c-.76.84-1.46,1.74-2.09,2.69l-1.25-.69-2.16-1.2h0s-1.6-.89-1.6-.89l-.88,1.6c-2.32,4.21-3.53,8.98-3.5,13.79v1.8s1.82,0,1.82,0h0s3.47.02,3.47.02h.46c.09,1.03.26,2.05.49,3.05l-3.7,1.04h0s-1.81.51-1.81.51l.57,1.79c.65,2.07,1.54,4.04,2.63,5.88,1.2,2.02,2.64,3.88,4.29,5.53l1.29,1.29,4.05-4.06c.62.52,1.26,1.01,1.94,1.47l-.91,1.67-.97,1.78h0s-.87,1.58-.87,1.58l1.57.88c2.48,1.39,5.14,2.37,7.92,2.97v2.99s-30.58-.17-30.58-.17V10.16h52.98v-3.65H7.17v80.9l37.85.22.07-18.94c.17-2.71-.85-5.35-2.79-7.25l-1.6-1.56c-1.09-1.07-1.71-2.55-1.71-4.08v-5.87c0-1.84,1.11-3.43,2.69-4.13v7.22c0,2.5,2.04,4.54,4.54,4.54h3.29c2.62,0,4.75-2.13,4.75-4.75v-7c1.39.57,2.59,1.69,2.59,2.91v8.06c0,1.28-1.73,3.13-2.56,4.01l-.68.72c-1.78,1.9-2.69,4.47-2.51,7.06v15.47s-2.9.03-2.9.03l4.71,9.55,4.53-9.64-2.7.03v-15.5s0-.15,0-.15c-.13-1.6.43-3.19,1.53-4.36l.68-.72c1.71-1.83,3.54-3.99,3.54-6.51v-8.06c0-3.97-4.26-6.94-8.06-6.94h-1.82v11.04c0,.61-.5,1.1-1.11,1.1h-3.29c-.49,0-.89-.4-.89-.89v-11.25h-1.82c-4.5,0-8.16,3.66-8.16,8.16v5.87c0,2.5,1.02,4.93,2.81,6.68l1.6,1.56c1.19,1.17,1.81,2.8,1.7,4.46l-.03,8.74c-1.57-.39-3.08-.92-4.54-1.6l1.82-3.32h0s.86-1.58.86-1.58l-1.56-.89c-1.48-.84-2.84-1.87-4.02-3.06l-1.29-1.3-3.94,3.96c-.93-1.08-1.76-2.24-2.49-3.47-.63-1.07-1.18-2.19-1.65-3.35l3.57-1.01h0l1.82-.52-.59-1.8c-.59-1.81-.89-3.68-.91-5.58l-.02-1.8h-1.8s-3.79-.03-3.79-.03c.2-2.96.93-5.87,2.17-8.57l3.28,1.82h0s1.6.89,1.6.89l.88-1.6c.96-1.75,2.19-3.33,3.65-4.68l1.39-1.29-2-2-1.96-1.96c.92-.75,1.89-1.42,2.91-2.02,1.47-.87,3.03-1.59,4.65-2.13l.25.93,1.2,4.46,1.75-.44c1.57-.4,3.17-.59,4.78-.58l1.85.02v-1.85c-.01-.62-.01-1.21-.01-1.79,0-.16,0-.32,0-.48,0-.43,0-.84,0-1.24,0-.08,0-.15,0-.23,2.7.22,5.35.89,7.83,1.97l-1.79,3.28h0s-.89,1.63-.89,1.63l1.64.86c1.65.87,3.15,1.97,4.47,3.28l1.29,1.28,3.94-3.96c.95,1.1,1.81,2.29,2.55,3.54.91,1.53,1.65,3.16,2.2,4.85l-5.37,1.51.41,1.71c.38,1.56.55,3.16.51,4.78l-.04,1.85,5.59.03c-.26,2.78-1,5.51-2.18,8.05l-2.07-1.15-2.82-1.56-.89,1.59c-.16.29-.29.53-.4.73-.39.73-.51.94-1.13,1.62h-.18s.03,23.87.03,23.87l24.47-.34V18.42H28.26Z"/>
  <rect class="st1" x="68.34" y="6.55" width="3.63" height="3.63"/>
  <rect class="st0" x="75.43" y="6.55" width="3.63" height="3.63"/>
  <rect class="st2" x="82.53" y="6.55" width="3.63" height="3.63"/>
</svg>