<?xml version="1.0" encoding="UTF-8"?>
<svg id="Layer_1" xmlns="http://www.w3.org/2000/svg" version="1.1" xmlns:xlink="http://www.w3.org/1999/xlink" viewBox="0 0 93.6 93.6">
  <!-- Generator: Adobe Illustrator 30.3.0, SVG Export Plug-In . SVG Version: 2.1.3 Build 182)  -->
  <defs>
    <style>
      .st0 {
        fill: url(#linear-gradient);
      }
    </style>
    <linearGradient id="linear-gradient" x1="13.69" y1="46.8" x2="79.91" y2="46.8" gradientUnits="userSpaceOnUse">
      <stop offset="0" stop-color="#f68922"/>
      <stop offset=".91" stop-color="#e94024"/>
      <stop offset="1" stop-color="#e94024"/>
    </linearGradient>
  </defs>
  <path class="st0" d="M79.03,39.15l-.43-1.8-6.59,1.65c-.31-1.01-.68-2-1.11-2.96l5.9-3.41-.84-1.56c-1.53-2.83-3.46-5.42-5.73-7.69-1.99-1.99-4.21-3.71-6.62-5.13l-1.57-.92-3.46,5.86c-1.23-.62-2.52-1.13-3.84-1.55l.73-2.86.5-1.94h0s.46-1.79.46-1.79l-1.8-.44c-5.18-1.26-10.66-1.24-15.83.04l-1.78.44.45,1.78c.09.37.19.75.29,1.14.29,1.12.6,2.34.94,3.67-.99.32-1.97.7-2.92,1.14l-1.4-2.5-1.04-1.86h0s-.88-1.57-.88-1.57l-1.58.87c-2.75,1.51-5.27,3.4-7.49,5.62-1.72,1.72-3.26,3.65-4.58,5.73l-1,1.59,1.61.96h0s4.19,2.49,4.19,2.49l.03.02c-.75,1.36-1.37,2.79-1.86,4.27l-4.24-1.11-2.34-.62-.46,1.77c-1.42,5.49-1.41,11.29.03,16.78l.46,1.74,1.75-.44h0s1.58-.4,1.58-.4l3.27-.82c.46,1.35,1.03,2.67,1.71,3.93l-4.25,2.47h0s-1.63.94-1.63.94l.99,1.6c1.35,2.17,2.94,4.17,4.72,5.96,1.96,1.96,4.15,3.66,6.51,5.07l1.57.93,3.46-5.86c1.04.52,2.12.98,3.22,1.36l-.57,2.21-.67,2.63h0s-.45,1.75-.45,1.75l1.74.47c2.82.75,5.71,1.13,8.6,1.13,3,0,6-.41,8.91-1.22l1.74-.48-.47-1.74-1.74-6.51h-.04c-.33-1.19-.68-2.46-1.03-3.75-.24-.86-.47-1.72-.7-2.56,2.39-.9,4.57-2.29,6.39-4.11,2.43-2.43,4.1-5.48,4.83-8.82l.41-1.84-7.47-1.38c.14-2.32-.48-4.67-1.87-6.66l2.92-2.92,1.98,1.98,3.52-10.05-10.05,3.52,1.98,1.98-2.92,2.92c-3.6-2.52-8.42-2.52-12.02,0l-5.39-5.39-1.29,1.29c-3.39,3.39-5.25,7.89-5.25,12.69,0,3.94,1.28,7.67,3.6,10.76-.87,1.82-.57,4.05.94,5.56,1.91,1.91,5.01,1.91,6.92,0s1.91-5.01,0-6.92c-1.4-1.4-3.42-1.76-5.16-1.12-1.72-2.4-2.66-5.27-2.66-8.28,0-3.2,1.05-6.25,2.98-8.74l2.73,2.73c-2.86,4.09-2.48,9.78,1.17,13.43,2.05,2.05,4.73,3.07,7.42,3.07.26,0,.52-.02.77-.04.6,2.2,1.67,6.08,2.71,9.87.9,3.27,1.78,6.46,2.32,8.44-3.98.85-8.09.86-12.07.05l.12-.46,1.09-4.27h0s.45-1.74.45-1.74l-1.73-.47c-1.99-.54-3.89-1.34-5.63-2.38l-1.57-.94-.93,1.57h0l-2.47,4.18c-1.52-1.04-2.95-2.22-4.26-3.53-1.15-1.15-2.2-2.4-3.16-3.74l5.79-3.36-1.01-1.6c-1.23-1.94-2.15-4.05-2.74-6.27l-.46-1.74-1.75.44-4.73,1.18c-.74-3.76-.75-7.64-.03-11.39l4.69,1.23h0l1.77.47.46-1.77c.6-2.34,1.57-4.56,2.88-6.59l1.03-1.59-2.56-1.52-3.2-1.9c.92-1.26,1.93-2.45,3.02-3.54,1.55-1.55,3.26-2.91,5.11-4.08l3.27,5.82,1.58-.86c1.72-.94,3.55-1.65,5.44-2.11l1.79-.44-.46-1.79c-.44-1.7-.85-3.26-1.21-4.68,3.46-.63,7.03-.64,10.49-.03l-.02.09-1.18,4.6h0s-.46,1.8-.46,1.8l1.8.43c2.2.52,4.29,1.37,6.22,2.5l1.57.92,1.7-2.87,1.7-2.88c1.55,1.05,3.01,2.26,4.35,3.59,1.61,1.61,3.02,3.39,4.21,5.32l-.74.43-3.52,2.03h0s-1.52.88-1.52.88l.82,1.55c.91,1.71,1.59,3.54,2.04,5.46l.42,1.81,6.49-1.63c.61,3.57.56,7.24-.15,10.8l-2.27-.6-2.43-.64h0s-1.76-.46-1.76-.46l-.47,1.76c-.46,1.75-1.14,3.44-2,5.03l-.84,1.54,3.82,2.27,1.92,1.14c-1.16,1.81-2.5,3.49-4.02,5.01-.09.09-.19.18-.28.27-1.92-1.48-4.67-1.36-6.43.4-1.91,1.91-1.91,5.01,0,6.92,1.91,1.91,5.01,1.91,6.92,0,1.11-1.11,1.56-2.62,1.37-4.07.34-.31.68-.61,1-.93,2.17-2.17,4.03-4.64,5.53-7.34l.86-1.55-1.53-.9h0s-4.33-2.57-4.33-2.57c.38-.82.72-1.66,1.01-2.52l4.82,1.27h0s1.76.46,1.76.46l.47-1.76c1.4-5.27,1.47-10.86.22-16.16ZM42.33,51.7c-2.67-2.67-2.67-7.01,0-9.68,1.33-1.33,3.09-2,4.84-2s3.51.67,4.84,2c2.67,2.67,2.67,7.01,0,9.68-2.67,2.67-7.01,2.67-9.68,0ZM54.59,54.28c.96-.96,1.68-2.05,2.19-3.22l3.82.71c-.71,1.95-1.84,3.72-3.32,5.2-1.37,1.37-3,2.44-4.78,3.16-.4-1.46-.75-2.74-1.02-3.71,1.13-.51,2.19-1.21,3.11-2.14Z"/>
</svg>